<mxfile host="app.diagrams.net" modified="2022-07-28T07:28:19.443Z" agent="5.0 (Windows NT 10.0; Win64; x64) AppleWebKit/537.36 (KHTML, like Gecko) Chrome/103.0.0.0 Safari/537.36" etag="T7_NLbCYxhCVkxjVErG_" version="20.2.2" type="github">
  <diagram id="leb6aF-NO6GbtpsrgxT7" name="第 1 页">
    <mxGraphModel dx="2062" dy="1146" grid="1" gridSize="10" guides="1" tooltips="1" connect="1" arrows="1" fold="1" page="1" pageScale="1" pageWidth="827" pageHeight="1169" math="0" shadow="0">
      <root>
        <mxCell id="0" />
        <mxCell id="1" parent="0" />
        <mxCell id="sJNDQpNuShKHyW9Kirum-1" style="rounded=0;orthogonalLoop=1;jettySize=auto;html=1;entryX=0;entryY=0.5;entryDx=0;entryDy=0;exitX=1;exitY=0.5;exitDx=0;exitDy=0;" edge="1" parent="1" source="sJNDQpNuShKHyW9Kirum-22" target="sJNDQpNuShKHyW9Kirum-7">
          <mxGeometry relative="1" as="geometry">
            <mxPoint x="436" y="450" as="sourcePoint" />
          </mxGeometry>
        </mxCell>
        <mxCell id="sJNDQpNuShKHyW9Kirum-2" style="rounded=0;orthogonalLoop=1;jettySize=auto;html=1;entryX=0;entryY=0.5;entryDx=0;entryDy=0;exitX=1;exitY=0.5;exitDx=0;exitDy=0;" edge="1" parent="1" source="sJNDQpNuShKHyW9Kirum-22" target="sJNDQpNuShKHyW9Kirum-12">
          <mxGeometry relative="1" as="geometry">
            <mxPoint x="439.2399999999999" y="459.06000000000006" as="sourcePoint" />
          </mxGeometry>
        </mxCell>
        <mxCell id="sJNDQpNuShKHyW9Kirum-3" value="" style="rounded=0;orthogonalLoop=1;jettySize=auto;html=1;entryX=0;entryY=0.5;entryDx=0;entryDy=0;exitX=0.994;exitY=0.05;exitDx=0;exitDy=0;exitPerimeter=0;" edge="1" parent="1" source="sJNDQpNuShKHyW9Kirum-7" target="sJNDQpNuShKHyW9Kirum-15">
          <mxGeometry relative="1" as="geometry" />
        </mxCell>
        <mxCell id="sJNDQpNuShKHyW9Kirum-4" style="rounded=0;orthogonalLoop=1;jettySize=auto;html=1;entryX=0;entryY=0.5;entryDx=0;entryDy=0;exitX=1;exitY=0.25;exitDx=0;exitDy=0;" edge="1" parent="1" source="sJNDQpNuShKHyW9Kirum-7" target="sJNDQpNuShKHyW9Kirum-16">
          <mxGeometry relative="1" as="geometry" />
        </mxCell>
        <mxCell id="sJNDQpNuShKHyW9Kirum-5" style="edgeStyle=none;rounded=0;orthogonalLoop=1;jettySize=auto;html=1;entryX=0;entryY=0.5;entryDx=0;entryDy=0;exitX=1;exitY=0.508;exitDx=0;exitDy=0;exitPerimeter=0;" edge="1" parent="1" source="sJNDQpNuShKHyW9Kirum-7" target="sJNDQpNuShKHyW9Kirum-17">
          <mxGeometry relative="1" as="geometry">
            <mxPoint x="640" y="370" as="sourcePoint" />
          </mxGeometry>
        </mxCell>
        <mxCell id="sJNDQpNuShKHyW9Kirum-6" style="edgeStyle=none;rounded=0;orthogonalLoop=1;jettySize=auto;html=1;entryX=0;entryY=0.5;entryDx=0;entryDy=0;exitX=1;exitY=0.75;exitDx=0;exitDy=0;" edge="1" parent="1" source="sJNDQpNuShKHyW9Kirum-7" target="sJNDQpNuShKHyW9Kirum-18">
          <mxGeometry relative="1" as="geometry" />
        </mxCell>
        <mxCell id="sJNDQpNuShKHyW9Kirum-7" value="Game1" style="shape=ext;double=1;rounded=1;whiteSpace=wrap;html=1;" vertex="1" parent="1">
          <mxGeometry x="514" y="410" width="120" height="20" as="geometry" />
        </mxCell>
        <mxCell id="sJNDQpNuShKHyW9Kirum-8" style="rounded=0;orthogonalLoop=1;jettySize=auto;html=1;entryX=0;entryY=0.5;entryDx=0;entryDy=0;exitX=1;exitY=0.5;exitDx=0;exitDy=0;" edge="1" parent="1" source="sJNDQpNuShKHyW9Kirum-12" target="sJNDQpNuShKHyW9Kirum-25">
          <mxGeometry relative="1" as="geometry" />
        </mxCell>
        <mxCell id="sJNDQpNuShKHyW9Kirum-9" style="rounded=0;orthogonalLoop=1;jettySize=auto;html=1;entryX=0;entryY=0.5;entryDx=0;entryDy=0;exitX=1;exitY=0.75;exitDx=0;exitDy=0;" edge="1" parent="1" source="sJNDQpNuShKHyW9Kirum-12" target="sJNDQpNuShKHyW9Kirum-26">
          <mxGeometry relative="1" as="geometry" />
        </mxCell>
        <mxCell id="sJNDQpNuShKHyW9Kirum-10" style="rounded=0;orthogonalLoop=1;jettySize=auto;html=1;entryX=0;entryY=0.5;entryDx=0;entryDy=0;exitX=1.001;exitY=0.896;exitDx=0;exitDy=0;exitPerimeter=0;" edge="1" parent="1" source="sJNDQpNuShKHyW9Kirum-12" target="sJNDQpNuShKHyW9Kirum-27">
          <mxGeometry relative="1" as="geometry" />
        </mxCell>
        <mxCell id="sJNDQpNuShKHyW9Kirum-11" style="edgeStyle=none;rounded=0;orthogonalLoop=1;jettySize=auto;html=1;entryX=-0.021;entryY=0.522;entryDx=0;entryDy=0;entryPerimeter=0;exitX=1;exitY=0.25;exitDx=0;exitDy=0;" edge="1" parent="1" source="sJNDQpNuShKHyW9Kirum-12" target="sJNDQpNuShKHyW9Kirum-24">
          <mxGeometry relative="1" as="geometry" />
        </mxCell>
        <mxCell id="sJNDQpNuShKHyW9Kirum-12" value="Game2" style="shape=ext;double=1;rounded=1;whiteSpace=wrap;html=1;" vertex="1" parent="1">
          <mxGeometry x="514" y="495" width="123" height="21" as="geometry" />
        </mxCell>
        <mxCell id="sJNDQpNuShKHyW9Kirum-13" value="" style="edgeStyle=none;rounded=0;orthogonalLoop=1;jettySize=auto;html=1;exitX=0;exitY=0.5;exitDx=0;exitDy=0;" edge="1" parent="1" source="sJNDQpNuShKHyW9Kirum-22" target="sJNDQpNuShKHyW9Kirum-19">
          <mxGeometry relative="1" as="geometry">
            <mxPoint x="402.12" y="454.56000000000006" as="sourcePoint" />
            <mxPoint x="420" y="560" as="targetPoint" />
          </mxGeometry>
        </mxCell>
        <mxCell id="sJNDQpNuShKHyW9Kirum-14" style="edgeStyle=none;rounded=0;orthogonalLoop=1;jettySize=auto;html=1;entryX=1;entryY=0.3333333333333333;entryDx=0;entryDy=0;entryPerimeter=0;exitX=0;exitY=0.5;exitDx=0;exitDy=0;" edge="1" parent="1" source="sJNDQpNuShKHyW9Kirum-22" target="sJNDQpNuShKHyW9Kirum-20">
          <mxGeometry relative="1" as="geometry">
            <mxPoint x="400" y="465" as="sourcePoint" />
          </mxGeometry>
        </mxCell>
        <mxCell id="sJNDQpNuShKHyW9Kirum-15" value="NFT 1" style="whiteSpace=wrap;html=1;rounded=1;" vertex="1" parent="1">
          <mxGeometry x="700" y="360" width="70" height="20" as="geometry" />
        </mxCell>
        <mxCell id="sJNDQpNuShKHyW9Kirum-16" value="NFT 2" style="whiteSpace=wrap;html=1;rounded=1;" vertex="1" parent="1">
          <mxGeometry x="710" y="380" width="70" height="20" as="geometry" />
        </mxCell>
        <mxCell id="sJNDQpNuShKHyW9Kirum-17" value="NFT 3" style="whiteSpace=wrap;html=1;rounded=1;" vertex="1" parent="1">
          <mxGeometry x="720" y="400" width="70" height="20" as="geometry" />
        </mxCell>
        <mxCell id="sJNDQpNuShKHyW9Kirum-18" value="NFT 4" style="whiteSpace=wrap;html=1;rounded=1;" vertex="1" parent="1">
          <mxGeometry x="730" y="420" width="70" height="20" as="geometry" />
        </mxCell>
        <mxCell id="sJNDQpNuShKHyW9Kirum-19" value="Admin 1" style="shape=umlActor;verticalLabelPosition=bottom;verticalAlign=top;html=1;outlineConnect=0;" vertex="1" parent="1">
          <mxGeometry x="287" y="402" width="17" height="38" as="geometry" />
        </mxCell>
        <mxCell id="sJNDQpNuShKHyW9Kirum-20" value="Admin 2" style="shape=umlActor;verticalLabelPosition=bottom;verticalAlign=top;html=1;outlineConnect=0;" vertex="1" parent="1">
          <mxGeometry x="287" y="478" width="17" height="37" as="geometry" />
        </mxCell>
        <mxCell id="sJNDQpNuShKHyW9Kirum-21" value="" style="edgeStyle=none;rounded=0;orthogonalLoop=1;jettySize=auto;html=1;fontSize=11;entryX=0.5;entryY=1;entryDx=0;entryDy=0;strokeColor=#FF3333;" edge="1" parent="1" source="sJNDQpNuShKHyW9Kirum-22" target="sJNDQpNuShKHyW9Kirum-23">
          <mxGeometry relative="1" as="geometry">
            <mxPoint x="420" y="380" as="targetPoint" />
          </mxGeometry>
        </mxCell>
        <mxCell id="sJNDQpNuShKHyW9Kirum-22" value="Cusetomer" style="ellipse;whiteSpace=wrap;html=1;fontSize=11;" vertex="1" parent="1">
          <mxGeometry x="385" y="440" width="70" height="49" as="geometry" />
        </mxCell>
        <mxCell id="sJNDQpNuShKHyW9Kirum-23" value="Account" style="rounded=0;whiteSpace=wrap;html=1;fontSize=11;strokeColor=#FF3333;" vertex="1" parent="1">
          <mxGeometry x="360" y="370" width="120" height="20" as="geometry" />
        </mxCell>
        <mxCell id="sJNDQpNuShKHyW9Kirum-24" value="NFT 5" style="whiteSpace=wrap;html=1;rounded=1;" vertex="1" parent="1">
          <mxGeometry x="730" y="465" width="70" height="20" as="geometry" />
        </mxCell>
        <mxCell id="sJNDQpNuShKHyW9Kirum-25" value="NFT 6" style="whiteSpace=wrap;html=1;rounded=1;" vertex="1" parent="1">
          <mxGeometry x="720" y="485" width="70" height="20" as="geometry" />
        </mxCell>
        <mxCell id="sJNDQpNuShKHyW9Kirum-26" value="NFT 7" style="whiteSpace=wrap;html=1;rounded=1;" vertex="1" parent="1">
          <mxGeometry x="710" y="505" width="70" height="20" as="geometry" />
        </mxCell>
        <mxCell id="sJNDQpNuShKHyW9Kirum-27" value="NFT 8" style="whiteSpace=wrap;html=1;rounded=1;" vertex="1" parent="1">
          <mxGeometry x="700" y="525" width="70" height="20" as="geometry" />
        </mxCell>
        <mxCell id="sJNDQpNuShKHyW9Kirum-28" value="" style="edgeStyle=none;rounded=0;orthogonalLoop=1;jettySize=auto;html=1;fontSize=11;entryX=0.5;entryY=1;entryDx=0;entryDy=0;strokeColor=#FF3333;exitX=0.5;exitY=0;exitDx=0;exitDy=0;" edge="1" parent="1" source="sJNDQpNuShKHyW9Kirum-7" target="sJNDQpNuShKHyW9Kirum-29">
          <mxGeometry relative="1" as="geometry">
            <mxPoint x="574" y="340" as="targetPoint" />
            <mxPoint x="574" y="400" as="sourcePoint" />
          </mxGeometry>
        </mxCell>
        <mxCell id="sJNDQpNuShKHyW9Kirum-29" value="Account" style="rounded=0;whiteSpace=wrap;html=1;fontSize=11;strokeColor=#FF3333;" vertex="1" parent="1">
          <mxGeometry x="514" y="350" width="120" height="20" as="geometry" />
        </mxCell>
        <mxCell id="sJNDQpNuShKHyW9Kirum-30" value="NFT Category" style="rounded=0;whiteSpace=wrap;html=1;strokeColor=#000000;" vertex="1" parent="1">
          <mxGeometry x="27" y="330" width="90" height="20" as="geometry" />
        </mxCell>
        <mxCell id="sJNDQpNuShKHyW9Kirum-31" value="Cusetomer" style="ellipse;whiteSpace=wrap;html=1;fontSize=11;" vertex="1" parent="1">
          <mxGeometry x="37" y="220" width="70" height="49" as="geometry" />
        </mxCell>
        <mxCell id="sJNDQpNuShKHyW9Kirum-32" value="Game" style="shape=ext;double=1;rounded=1;whiteSpace=wrap;html=1;" vertex="1" parent="1">
          <mxGeometry x="27" y="280" width="90" height="30" as="geometry" />
        </mxCell>
        <mxCell id="sJNDQpNuShKHyW9Kirum-33" value="NFT&amp;nbsp;" style="whiteSpace=wrap;html=1;rounded=1;" vertex="1" parent="1">
          <mxGeometry x="27" y="360" width="90" height="25" as="geometry" />
        </mxCell>
        <mxCell id="sJNDQpNuShKHyW9Kirum-34" value="Admin" style="shape=umlActor;verticalLabelPosition=bottom;verticalAlign=top;html=1;outlineConnect=0;" vertex="1" parent="1">
          <mxGeometry x="63.5" y="401" width="17" height="38" as="geometry" />
        </mxCell>
        <mxCell id="sJNDQpNuShKHyW9Kirum-35" value="Account" style="rounded=0;whiteSpace=wrap;html=1;fontSize=11;strokeColor=#FF3333;" vertex="1" parent="1">
          <mxGeometry x="27" y="475" width="90" height="20" as="geometry" />
        </mxCell>
        <mxCell id="sJNDQpNuShKHyW9Kirum-36" value="&lt;h1&gt;Open Topic&lt;/h1&gt;&lt;p&gt;1. Account should based on customer wise or game wise?&lt;/p&gt;&lt;p&gt;2. After registration of customer, deposit shoud be mandatory, Since costs are required during the NFT miniting process.&amp;nbsp;&lt;/p&gt;&lt;p&gt;3. Who should responsible for customer&#39;s Game management&amp;nbsp;&lt;/p&gt;" style="text;html=1;strokeColor=none;fillColor=none;spacing=5;spacingTop=-20;whiteSpace=wrap;overflow=hidden;rounded=0;" vertex="1" parent="1">
          <mxGeometry x="257" y="130" width="380" height="160" as="geometry" />
        </mxCell>
      </root>
    </mxGraphModel>
  </diagram>
</mxfile>
